<?xml version="1.0" encoding="UTF-8"?>
<svg width="16px" height="16px" viewBox="0 0 16 16" version="1.1" xmlns="http://www.w3.org/2000/svg" xmlns:xlink="http://www.w3.org/1999/xlink">
    <!-- Generator: Sketch 49 (51002) - http://www.bohemiancoding.com/sketch -->
    <title>safari-pinned-tab</title>
    <desc>Created with Sketch.</desc>
    <defs></defs>
    <g id="Second" stroke="none" stroke-width="1" fill="none" fill-rule="evenodd">
        <g id="Icon">
            <g id="1024x1024">
                <g id="BackgroundColor" fill="#0BA24A">
                    <rect id="Rectangle" x="0" y="0" width="16" height="16"></rect>
                </g>
                <g id="InnerLogo" transform="translate(0.000000, 0.609375)" fill="#FEFEFE">
                    <path d="M8.81898929,5.08920756 L8.81655887,3.34328819 C8.81655887,2.38067041 9.59480657,1.59749755 10.5516265,1.59749755 C11.5079349,1.59749755 12.2860546,2.38067041 12.2860546,3.34328819 C12.2860546,4.3060347 11.5079349,5.08920756 10.5516265,5.08920756 L8.81898929,5.08920756 Z M7.23230547,11.6565831 C7.23230547,12.6194583 6.45380194,13.4026312 5.49698196,13.4026312 C4.54067364,13.4026312 3.76255387,12.6194583 3.76255387,11.6565831 C3.76255387,10.6938366 4.54067364,9.91066371 5.49698196,9.91066371 L7.23230547,9.91066371 L7.23230547,11.6565831 Z M8.81962888,6.68696257 L10.5516265,6.68696257 C12.3832716,6.68696257 13.8738897,5.1870398 13.8738897,3.34328819 C13.8738897,1.49966531 12.3832716,0 10.5516265,0 C8.7195977,0 7.22897962,1.49966531 7.22897962,3.34328819 C7.22897962,3.37250914 7.23064254,4.48354874 7.23153796,5.08920756 L0,5.08920756 L0,6.68696257 L7.23230547,6.68696257 L7.23230547,8.31316616 L5.49698196,8.31316616 C3.66495311,8.31316616 2.17446295,9.81283147 2.17446295,11.6565831 C2.17446295,13.500206 3.66495311,15 5.49698196,15 C7.32913872,15 8.81962888,13.500206 8.81962888,11.6565831 L8.81962888,9.91066371 L16,9.91066371 L16,8.31316616 L8.81962888,8.31316616 L8.81962888,6.68696257 Z" id="Fill-1"></path>
                </g>
            </g>
        </g>
    </g>
</svg>